<?xml version="1.0" encoding="UTF-8"?>
<svg version="1.1" xmlns="http://www.w3.org/2000/svg" width="950" height="512">
<path d="M0 0 C1.78423874 -0.01429802 1.78423874 -0.01429802 3.60452271 -0.02888489 C4.90018158 -0.02797348 6.19584045 -0.02706207 7.53076172 -0.02612305 C8.87962983 -0.03001416 10.22849673 -0.03434968 11.57736206 -0.03910828 C14.41717471 -0.04658692 17.2568632 -0.04627255 20.09667969 -0.04101562 C22.98095447 -0.0364218 25.86480408 -0.04314894 28.74902344 -0.06152344 C59.6588375 -0.25681769 59.6588375 -0.25681769 72.33544922 3.2746582 C73.17188965 3.50435303 74.00833008 3.73404785 74.87011719 3.97070312 C83.64975588 6.64674961 91.19246875 10.49161672 98.33544922 16.2746582 C99.56714844 17.19891602 99.56714844 17.19891602 100.82373047 18.1418457 C112.78464137 28.29838902 119.3562238 44.51450724 120.63916016 59.92211914 C120.77245397 63.83574586 120.79406345 67.73392897 120.77294922 71.6496582 C120.79292969 72.95676758 120.81291016 74.26387695 120.83349609 75.6105957 C120.8243085 94.13278043 114.40960347 111.47675637 101.23388672 124.64575195 C96.93710763 128.54296534 92.443305 131.54790812 87.33544922 134.2746582 C86.28164062 134.85280273 86.28164062 134.85280273 85.20654297 135.44262695 C80.45613311 137.79529673 75.45492644 139.15131117 70.33544922 140.4621582 C69.68294189 140.6293335 69.03043457 140.79650879 68.3581543 140.96875 C58.91071888 143.25265486 49.54854118 143.43375052 39.87451172 143.44262695 C37.97323013 143.44761955 37.97323013 143.44761955 36.03353882 143.45271301 C33.36932831 143.45775377 30.70522008 143.46055725 28.04101562 143.45996094 C24.6280315 143.45985859 21.21525202 143.47360556 17.80231667 143.49073315 C14.5347226 143.5045014 11.26713088 143.5039403 7.99951172 143.50512695 C6.77454987 143.51231247 5.54958801 143.51949799 4.2875061 143.52690125 C2.58961441 143.5222863 2.58961441 143.5222863 0.85742188 143.51757812 C-0.63741226 143.51971565 -0.63741226 143.51971565 -2.16244507 143.52189636 C-4.66455078 143.2746582 -4.66455078 143.2746582 -7.66455078 141.2746582 C-8.62217227 138.40179374 -8.79108684 136.61441271 -8.79394531 133.63232422 C-8.79704712 132.67384079 -8.80014893 131.71535736 -8.80334473 130.72782898 C-8.80137085 129.67207169 -8.79939697 128.61631439 -8.79736328 127.52856445 C-8.79877319 126.40621902 -8.80018311 125.2838736 -8.80163574 124.1275177 C-8.80380551 120.36403457 -8.7973797 116.60063317 -8.78955078 112.8371582 C-8.78799988 111.54585999 -8.78644897 110.25456177 -8.78485107 108.9241333 C-8.75375448 86.54791112 -8.59312578 64.17216046 -8.34515381 41.79733276 C-8.30714816 38.36110009 -8.27341815 34.9248659 -8.2432251 31.48855591 C-8.20691761 27.41499925 -8.16065909 23.34167508 -8.10661316 19.26831627 C-8.08807462 17.75694176 -8.07288049 16.24552221 -8.06117249 14.73407936 C-8.04445674 12.66452154 -8.01554314 10.59549033 -7.98339844 8.52612305 C-7.96341293 6.77904556 -7.96341293 6.77904556 -7.94302368 4.99667358 C-7.4042766 -0.26946846 -4.5807431 0.02012474 0 0 Z M25.33544922 26.2746582 C25.33544922 56.3046582 25.33544922 86.3346582 25.33544922 117.2746582 C52.99609696 118.00428813 52.99609696 118.00428813 76.26904297 105.54418945 C87.06054342 93.78387599 87.00620818 78.9355059 86.47900391 63.8605957 C85.85054389 52.53976488 82.32298634 44.25070293 74.30029297 36.2434082 C60.42563789 24.35804124 42.68298818 26.2746582 25.33544922 26.2746582 Z " fill="#394478" transform="translate(88.66455078125,148.725341796875)"/>
<path d="M0 0 C7.45389476 7.14992387 10.75134131 15.33054737 11.35693359 25.52661133 C11.12883407 34.00222736 9.08914454 42.23727157 7.3125 50.5 C6.89819047 52.48791144 6.48528578 54.47611614 6.07373047 56.46459961 C5.02494448 61.50730365 3.95415618 66.54502026 2.87469482 71.58123779 C2.27338342 74.3907456 1.67694754 77.20123565 1.08251953 80.01220703 C-1.14060404 90.52016588 -3.38139991 101.02376441 -5.75 111.5 C-6.00652344 112.65814209 -6.26304687 113.81628418 -6.52734375 115.00952148 C-6.77355469 116.06856689 -7.01976562 117.1276123 -7.2734375 118.21875 C-7.48145996 119.12689453 -7.68948242 120.03503906 -7.90380859 120.97070312 C-10.29262461 128.11096103 -16.1729598 134.00508742 -22.75 137.5 C-31.9194005 141.64889224 -41.49256684 142.61399596 -51.1171875 139.5703125 C-60.54027107 135.73956339 -68.03083058 128.98729424 -72.125 119.625 C-76.65834712 108.31134242 -73.76037591 97.26724662 -71.4375 85.8125 C-71.07509769 83.98060063 -70.71337683 82.14856634 -70.35229492 80.31640625 C-69.37897395 75.40746246 -68.38301157 70.50336313 -67.38122559 65.60015869 C-66.73688821 62.43560365 -66.1005023 59.26953204 -65.46582031 56.10302734 C-64.39428842 50.76571803 -63.30492219 45.43233071 -62.20205688 40.10140991 C-61.77910025 38.05036186 -61.360228 35.99846689 -60.94564819 33.94570923 C-55.21929578 5.70962494 -55.21929578 5.70962494 -42.6171875 -2.96875 C-28.90236049 -11.18808884 -12.51669078 -10.05096539 0 0 Z " fill="#394679" transform="translate(391.75,139.5)"/>
<path d="M0 0 C0.91910156 -0.03738281 1.83820313 -0.07476562 2.78515625 -0.11328125 C4.12126953 -0.13068359 4.12126953 -0.13068359 5.484375 -0.1484375 C6.28069336 -0.16825684 7.07701172 -0.18807617 7.89746094 -0.20849609 C11.45061571 0.67278659 12.93720288 2.60193879 15.25 5.375 C16.6652832 8.13769531 16.6652832 8.13769531 17.80078125 11.203125 C18.24389648 12.37496338 18.68701172 13.54680176 19.14355469 14.75415039 C19.6165936 16.04441265 20.08957348 17.33469654 20.5625 18.625 C21.07168807 19.98292427 21.58247396 21.34025029 22.09472656 22.69702148 C22.92017031 24.88353924 23.74462709 27.07037522 24.56442261 29.25901794 C26.76079217 35.11645507 29.02145865 40.94698689 31.30859375 46.76953125 C31.65364456 47.64800217 31.99869537 48.52647308 32.35420227 49.43156433 C33.05367198 51.21163583 33.75326211 52.99166002 34.45297241 54.77163696 C40.26339673 69.56570313 45.96861406 84.3821182 51.25 99.375 C51.50652344 98.51003906 51.76304687 97.64507812 52.02734375 96.75390625 C56.73100049 81.2809344 62.39683477 66.15606838 67.9609375 50.9765625 C68.30396156 50.04030281 68.30396156 50.04030281 68.65391541 49.08512878 C69.81481275 45.91824275 70.97953679 42.75285546 72.15161133 39.59008789 C74.43113033 33.42654498 76.6489983 27.25059401 78.73828125 21.01953125 C79.13144531 19.86646484 79.52460938 18.71339844 79.9296875 17.52539062 C80.66556821 15.35708005 81.38406494 13.18276357 82.08203125 11.00195312 C83.47209392 6.94307872 84.4641371 4.0861996 87.67578125 1.1796875 C93.34983728 -0.09775025 98.84974678 0.33397692 104.625 0.6875 C105.83800781 0.74873047 107.05101562 0.80996094 108.30078125 0.87304688 C111.28494441 1.02577964 114.26746767 1.19355679 117.25 1.375 C118.25 3.375 118.25 3.375 117.39233398 5.96826172 C116.93157471 7.06928223 116.47081543 8.17030273 115.99609375 9.3046875 C115.61822723 10.21902054 115.61822723 10.21902054 115.23272705 11.15182495 C114.68159009 12.48402091 114.12707975 13.81482496 113.56967163 15.14440918 C112.05547817 18.75852659 110.56760689 22.38345642 109.078125 26.0078125 C108.76497849 26.76835937 108.45183197 27.52890625 108.12919617 28.3125 C104.03083045 38.29663963 100.15914807 48.3688236 96.27319336 58.43701172 C92.37998376 68.51694496 88.39993879 78.55952389 84.37002563 88.58557129 C83.17904653 91.55170991 81.99205437 94.51942544 80.80541992 97.48730469 C78.65484143 102.86229757 76.4914098 108.23199077 74.32128906 113.59912109 C73.42948901 115.81016564 72.54155729 118.02277384 71.65722656 120.23681641 C70.35919133 123.48474899 69.04818535 126.7271721 67.734375 129.96875 C67.34264099 130.95717896 66.95090698 131.94560791 66.54730225 132.96398926 C66.17301086 133.88015015 65.79871948 134.79631104 65.41308594 135.74023438 C65.09080017 136.54150757 64.7685144 137.34278076 64.4364624 138.16833496 C63.04419242 140.7577752 61.46940872 142.45705408 59.25 144.375 C56.83984375 144.87670898 56.83984375 144.87670898 54.1875 144.87109375 C53.22585938 144.87173828 52.26421875 144.87238281 51.2734375 144.87304688 C50.27570313 144.85306641 49.27796875 144.83308594 48.25 144.8125 C47.25226563 144.81958984 46.25453125 144.82667969 45.2265625 144.83398438 C36.68751651 144.7595825 36.68751651 144.7595825 33.25 141.375 C31.93237305 138.92773438 31.93237305 138.92773438 30.76171875 135.96875 C30.08496094 134.29135742 30.08496094 134.29135742 29.39453125 132.58007812 C28.91371094 131.35740234 28.43289063 130.13472656 27.9375 128.875 C26.87407738 126.22690225 25.80183488 123.58239212 24.73046875 120.9375 C24.4510141 120.24434692 24.17155945 119.55119385 23.88363647 118.83703613 C20.93436775 111.54143822 17.82683737 104.31607455 14.70718384 97.09207153 C8.81068339 83.43433644 3.0448089 69.72949337 -2.6171875 55.97265625 C-6.66992705 46.12669624 -10.77509666 36.30257632 -14.87597656 26.47659302 C-15.51558801 24.9439705 -16.15506818 23.4112932 -16.79440308 21.8785553 C-17.37685523 20.48220711 -17.95961793 19.08598839 -18.54275513 17.68992615 C-19.28123774 15.91942211 -20.01577883 14.14727548 -20.75 12.375 C-21.14815918 11.45525391 -21.54631836 10.53550781 -21.95654297 9.58789062 C-22.95843246 6.7936979 -22.67999728 5.16499184 -21.75 2.375 C-15.66134209 -0.66932896 -6.71584747 0.1053842 0 0 Z " fill="#3B467A" transform="translate(428.75,147.625)"/>
<path d="M0 0 C8.5089814 6.57004957 13.24490859 15.287317 15.5 25.75 C15.62426549 27.42649601 15.7031149 29.10665464 15.74951172 30.78710938 C15.77979462 31.78915405 15.81007751 32.79119873 15.84127808 33.8236084 C15.87045319 34.90275513 15.8996283 35.98190186 15.9296875 37.09375 C16.00339526 39.39584975 16.07763118 41.69793264 16.15234375 44 C16.26533635 47.61576305 16.37449027 51.23149903 16.47412109 54.84765625 C16.57254729 58.34682758 16.68749515 61.84516325 16.8046875 65.34375 C16.82981415 66.40670288 16.8549408 67.46965576 16.88082886 68.56481934 C17.11182392 75.05048417 18.07603577 80.9112948 19.82546997 87.16442871 C20.73052367 90.63363062 21.02915702 93.19708861 20.5 96.75 C18.71273963 98.77017463 17.24422552 99.6406241 14.56469727 100.03442383 C12.22315007 100.15484036 9.90678455 100.15889327 7.5625 100.125 C6.76392578 100.13660156 5.96535156 100.14820313 5.14257812 100.16015625 C0.45158057 100.13683729 -2.70488811 99.79626797 -6.5 96.75 C-8.1875 94.1875 -8.1875 94.1875 -9.5 91.75 C-10.16 91.09 -10.82 90.43 -11.5 89.75 C-12.10585938 90.20890625 -12.71171875 90.6678125 -13.3359375 91.140625 C-25.10529915 99.75941907 -36.26259658 103.00459094 -50.82421875 101.51171875 C-59.24052945 100.01582152 -67.02020509 96.05024829 -72.5 89.4375 C-78.05952644 81.43818138 -79.63547412 73.42676274 -78.5 63.75 C-76.50924045 56.14016106 -72.99815381 49.98813504 -66.30078125 45.703125 C-65.14964844 45.14109375 -63.99851562 44.5790625 -62.8125 44 C-61.10513672 43.14148438 -61.10513672 43.14148438 -59.36328125 42.265625 C-49.55019389 38.11452515 -39.32235629 38.50203534 -28.875 38.625 C-27.37891227 38.63505392 -25.88281797 38.64417549 -24.38671875 38.65234375 C-20.75767374 38.67415692 -17.12888015 38.70855259 -13.5 38.75 C-13.75659311 36.51914933 -14.03087314 34.29032877 -14.3125 32.0625 C-14.46332031 30.82113281 -14.61414063 29.57976562 -14.76953125 28.30078125 C-15.49804412 24.75950746 -16.33724455 22.61981012 -18.5 19.75 C-24.17284691 16.52426352 -29.36202868 15.84552539 -35.64453125 17.21875 C-37.87649611 17.91442736 -39.54786278 18.4458411 -41.5 19.75 C-42.02207031 20.77867187 -42.54414062 21.80734375 -43.08203125 22.8671875 C-45.5 25.75 -45.5 25.75 -47.70361328 26.17626953 C-50.47864105 26.1882331 -53.17477468 26.00988827 -55.9375 25.75 C-57.34999023 25.66298828 -57.34999023 25.66298828 -58.79101562 25.57421875 C-67.57556825 24.94187975 -67.57556825 24.94187975 -71.5 22.75 C-73.56754031 18.61491937 -72.71450131 14.46921026 -71.4375 10.1875 C-66.95786843 2.23976656 -59.78225114 -1.05055504 -51.5 -4.25 C-50.70335937 -4.57226562 -49.90671875 -4.89453125 -49.0859375 -5.2265625 C-33.7305359 -10.44252431 -13.61726761 -8.81591992 0 0 Z M-43.5625 61.3125 C-46.70680232 65.26823518 -46.9295543 67.68125925 -46.5 72.75 C-44.58081699 76.07166291 -43.16282586 77.44068126 -39.6875 79.0625 C-33.16111919 80.47015076 -27.28636911 80.20370368 -21.5 76.75 C-15.69878756 71.35665827 -15.69878756 71.35665827 -13.40234375 64.1484375 C-13.41394531 63.15070313 -13.42554688 62.15296875 -13.4375 61.125 C-13.44652344 60.12210937 -13.45554687 59.11921875 -13.46484375 58.0859375 C-13.47644531 57.31507813 -13.48804688 56.54421875 -13.5 55.75 C-29.5113155 54.79243518 -29.5113155 54.79243518 -43.5625 61.3125 Z " fill="#3A457A" transform="translate(606.5,192.25)"/>
<path d="M0 0 C1.32825806 0.00845947 1.32825806 0.00845947 2.68334961 0.01708984 C8.9354424 0.13349898 14.39385917 0.64802225 20.125 3.3125 C21.04539062 3.72628906 21.96578125 4.14007813 22.9140625 4.56640625 C33.9274049 10.01370633 39.57051077 18.03203133 44.125 29.3125 C46.08839775 35.64345599 46.46073045 41.45576024 46.4375 48.0625 C46.45361328 48.99449219 46.46972656 49.92648438 46.48632812 50.88671875 C46.48697266 51.78519531 46.48761719 52.68367188 46.48828125 53.609375 C46.49126221 54.41729492 46.49424316 55.22521484 46.49731445 56.05761719 C46.03086025 58.88264737 45.07574745 60.24017055 43.125 62.3125 C39.89641906 63.38869365 37.57960721 63.43302496 34.18481445 63.42602539 C32.96377518 63.42594986 31.7427359 63.42587433 30.48469543 63.42579651 C29.16587875 63.42063522 27.84706207 63.41547394 26.48828125 63.41015625 C25.12493441 63.4082908 23.76158689 63.4068675 22.39823914 63.40586853 C18.81271509 63.40205332 15.22723165 63.39223155 11.64172363 63.38116455 C7.9818578 63.37092901 4.3219854 63.36636632 0.66210938 63.36132812 C-6.51694558 63.35060838 -13.6959671 63.33354393 -20.875 63.3125 C-20.43748543 64.89020407 -19.99024252 66.4652119 -19.5390625 68.0390625 C-19.2910791 68.91643066 -19.0430957 69.79379883 -18.78759766 70.69775391 C-16.72129231 76.61806698 -13.32284497 80.93736808 -7.6875 83.75 C4.89751348 88.46938005 18.74513246 86.21295975 30.8203125 81.01953125 C33.47598205 80.20482584 34.62945952 80.0833532 37.125 81.3125 C40.03460213 86.13412638 42.34448054 92.71574613 42.125 98.3125 C35.80845695 106.07282432 23.96566969 107.74746201 14.5390625 108.99609375 C-2.42438807 110.56822132 -18.87061658 108.58238118 -32.875 98.3125 C-33.82375 97.6525 -34.7725 96.9925 -35.75 96.3125 C-46.09223976 87.35829768 -50.00648245 74.40975035 -51.875 61.3125 C-53.01244847 44.14496372 -48.9449301 28.64991262 -38.203125 15.22265625 C-28.43026123 4.34303654 -14.25630575 -0.09487037 0 0 Z M-15.75 31.1875 C-19.64946718 36.0462894 -20.875 38.97328905 -20.875 45.3125 C-8.005 45.3125 4.865 45.3125 18.125 45.3125 C17.63371172 35.96106014 17.63371172 35.96106014 13.125 29.3125 C3.78465531 22.11265097 -7.64264581 22.27277444 -15.75 31.1875 Z " fill="#3C477C" transform="translate(686.875,184.6875)"/>
<path d="M0 0 C0.74086853 0.00719055 1.48173706 0.0143811 2.24505615 0.02178955 C3.02563385 0.0214975 3.80621155 0.02120544 4.61044312 0.02090454 C7.19693015 0.02230065 9.78313101 0.03787491 12.36956787 0.05352783 C14.16032758 0.05725697 15.95108933 0.06010441 17.74185181 0.06210327 C22.46014009 0.06974759 27.17830568 0.08940288 31.89654541 0.11151123 C36.70915059 0.13195251 41.52177556 0.14110131 46.33441162 0.15118408 C55.78108018 0.17264805 65.22765758 0.20679359 74.67425537 0.24884033 C77.42802181 5.7563732 76.8296406 14.30229379 75.67425537 20.24884033 C73.41844891 25.64612224 69.53608458 29.93334543 65.67425537 34.24884033 C65.03359131 34.99262939 64.39292725 35.73641846 63.73284912 36.50274658 C62.62577836 37.77420836 61.50493293 39.03382916 60.36956787 40.28009033 C58.39842132 42.56916375 56.67262189 44.97305472 54.92425537 47.43634033 C51.87739748 51.70312005 48.65330269 55.71751624 45.23675537 59.68634033 C36.604776 69.38704751 36.604776 69.38704751 29.67425537 80.24884033 C30.26085434 80.2591478 30.84745331 80.26945526 31.451828 80.28007507 C37.53463407 80.38791228 43.61728512 80.50252789 49.69989014 80.62115479 C51.97264373 80.66457698 54.2454315 80.70624649 56.51824951 80.74615479 C59.77738769 80.80368152 63.03635268 80.86742585 66.29534912 80.93243408 C67.31825546 80.94914658 68.3411618 80.96585907 69.39506531 80.983078 C70.80641502 81.01299583 70.80641502 81.01299583 72.24627686 81.04351807 C73.0790062 81.05906235 73.91173553 81.07460663 74.7696991 81.09062195 C76.67425537 81.24884033 76.67425537 81.24884033 77.67425537 82.24884033 C77.92461511 85.55400967 77.85947489 88.87280074 77.86175537 92.18634033 C77.87400146 93.11897705 77.88624756 94.05161377 77.89886475 95.01251221 C77.90079834 95.90389893 77.90273193 96.79528564 77.90472412 97.71368408 C77.90883301 98.53473633 77.91294189 99.35578857 77.91717529 100.20172119 C77.67425537 102.24884033 77.67425537 102.24884033 75.67425537 104.24884033 C73.03483051 104.44727648 70.50033199 104.52158915 67.85980225 104.50762939 C67.05317642 104.51113403 66.2465506 104.51463867 65.41548157 104.51824951 C62.74123606 104.52707347 60.06725371 104.52121539 57.39300537 104.51446533 C55.53977406 104.51581179 53.68654309 104.51775216 51.83331299 104.52026367 C47.94611249 104.52321583 44.05900381 104.51891434 40.17181396 104.50958252 C35.18128909 104.49818793 30.19097932 104.50474691 25.20046234 104.51672745 C21.37270477 104.52394357 17.54499847 104.52165926 13.71723938 104.51647186 C11.87677485 104.51513468 10.03630571 104.51678548 8.19584656 104.52143097 C5.62667455 104.52649215 3.05785421 104.51879185 0.4887085 104.50762939 C-0.27707016 104.51167786 -1.04284882 104.51572632 -1.83183289 104.51989746 C-7.09721611 104.47736885 -7.09721611 104.47736885 -9.32574463 102.24884033 C-10.55330762 95.94195981 -11.26004174 88.96275803 -8.20220947 83.09161377 C-5.20596048 78.74741151 -1.63375194 74.92214891 1.98187256 71.09063721 C4.41557043 68.44207737 6.52244773 65.63212054 8.67425537 62.74884033 C12.92841142 57.17086263 17.32317041 51.72194668 21.7633667 46.2913208 C25.99370479 41.109957 30.1449341 35.87140686 34.24822998 30.58892822 C35.97914564 28.36732815 37.68047437 26.24262133 39.67425537 24.24884033 C38.83527206 24.24004097 38.83527206 24.24004097 37.9793396 24.23106384 C32.17190321 24.16726247 26.36502785 24.08287849 20.55804443 23.98638916 C18.38917424 23.95307942 16.22021609 23.92506655 14.0512085 23.90240479 C10.93819599 23.86896978 7.82599397 23.81666021 4.71331787 23.76055908 C3.73932037 23.75416916 2.76532288 23.74777924 1.7618103 23.74119568 C0.86102753 23.72140152 -0.03975525 23.70160736 -0.96783447 23.68121338 C-1.76281342 23.67011032 -2.55779236 23.65900726 -3.37686157 23.64756775 C-5.32574463 23.24884033 -5.32574463 23.24884033 -7.32574463 20.24884033 C-7.58453369 18.28765869 -7.58453369 18.28765869 -7.59136963 16.08868408 C-7.59394775 15.29526611 -7.59652588 14.50184814 -7.59918213 13.68438721 C-7.59144775 12.86003174 -7.58371338 12.03567627 -7.57574463 11.18634033 C-7.583479 10.35811768 -7.59121338 9.52989502 -7.59918213 8.67657471 C-7.59531494 7.48838135 -7.59531494 7.48838135 -7.59136963 6.27618408 C-7.58911377 5.55165039 -7.58685791 4.8271167 -7.58453369 4.08062744 C-6.95361176 -0.38522848 -3.74858567 0.01524837 0 0 Z " fill="#3C477B" transform="translate(750.3257446289063,187.75115966796875)"/>
<path d="M0 0 C1.29357422 -0.00386719 1.29357422 -0.00386719 2.61328125 -0.0078125 C4.6875 0.125 4.6875 0.125 5.6875 1.125 C5.78735642 3.10083828 5.81830794 5.08023478 5.8203125 7.05859375 C5.82160156 8.26451172 5.82289063 9.47042969 5.82421875 10.71289062 C5.82035156 11.98326172 5.81648438 13.25363281 5.8125 14.5625 C5.81636719 15.82900391 5.82023437 17.09550781 5.82421875 18.40039062 C5.82292969 19.60759766 5.82164062 20.81480469 5.8203125 22.05859375 C5.81918457 23.17290771 5.81805664 24.28722168 5.81689453 25.43530273 C5.6875 28.125 5.6875 28.125 4.6875 30.125 C3.6253125 30.10179687 2.563125 30.07859375 1.46875 30.0546875 C-8.23695955 29.90436261 -16.71803559 29.85112411 -25.3125 35.125 C-30.05670512 40.13277207 -31.55164302 44.61893244 -31.61547852 51.4440918 C-31.63212051 52.69856613 -31.64876251 53.95304047 -31.66590881 55.24552917 C-31.67446843 56.60509199 -31.68296611 57.96465519 -31.69140625 59.32421875 C-31.70759119 60.72476856 -31.72477223 62.12530718 -31.74290466 63.52583313 C-31.78847813 67.20255366 -31.82334691 70.87928931 -31.85510254 74.55615234 C-31.90709219 80.45171489 -31.97207993 86.34711351 -32.04331779 92.24247169 C-32.0661606 94.30206965 -32.08242115 96.36164661 -32.09803772 98.42131042 C-32.11152756 99.66632828 -32.1250174 100.91134613 -32.13891602 102.1940918 C-32.14842789 103.29375778 -32.15793976 104.39342377 -32.16773987 105.52641296 C-32.3125 108.125 -32.3125 108.125 -33.3125 110.125 C-38.20651934 111.75633978 -43.25083796 111.30952602 -48.375 111.3125 C-49.48939453 111.32474609 -50.60378906 111.33699219 -51.75195312 111.34960938 C-53.34620117 111.35250977 -53.34620117 111.35250977 -54.97265625 111.35546875 C-55.94855713 111.35957764 -56.92445801 111.36368652 -57.92993164 111.36791992 C-60.3125 111.125 -60.3125 111.125 -62.3125 109.125 C-62.58259296 107.29431248 -62.58259296 107.29431248 -62.61116028 105.03236389 C-62.62665924 104.17570633 -62.6421582 103.31904877 -62.65812683 102.43643188 C-62.66500015 101.49456024 -62.67187347 100.5526886 -62.67895508 99.58227539 C-62.69381958 98.59193802 -62.70868408 97.60160065 -62.72399902 96.58125305 C-62.77032386 93.29509619 -62.80182834 90.00899823 -62.83203125 86.72265625 C-62.85834858 84.44583136 -62.88510278 82.16901148 -62.91227722 79.89219666 C-62.96677969 75.11477931 -63.01354628 70.3373585 -63.05541992 65.55981445 C-63.11012565 59.42799328 -63.18761172 53.29669987 -63.27136707 47.16521549 C-63.3324862 42.46166972 -63.37968222 37.75806127 -63.42282677 33.05431938 C-63.44561333 30.79317389 -63.47320587 28.53207168 -63.50562477 26.27104378 C-63.54918372 23.11300617 -63.5735893 19.95538461 -63.59301758 16.79711914 C-63.61001205 15.85727173 -63.62700653 14.91742432 -63.64451599 13.94909668 C-63.64591583 13.08961929 -63.64731567 12.23014191 -63.64875793 11.34461975 C-63.65630002 10.59779969 -63.66384211 9.85097963 -63.67161274 9.08152866 C-63.21117942 6.57298221 -62.27041907 5.70462037 -60.3125 4.125 C-56.53947593 2.61753311 -52.3819739 2.94115267 -48.375 2.9375 C-47.67181641 2.92525391 -46.96863281 2.91300781 -46.24414062 2.90039062 C-42.16846439 2.88893137 -38.92520195 3.17126175 -35.3125 5.125 C-33.86568676 8.01862649 -33.88007624 10.9333009 -33.59375 14.12890625 C-33.51717988 16.12083131 -33.51717988 16.12083131 -32.3125 17.125 C-31.96960938 16.55652344 -31.62671875 15.98804688 -31.2734375 15.40234375 C-25.81060979 7.34265459 -17.7257874 2.53043074 -8.2109375 0.4453125 C-5.44939041 0.14012805 -2.77738994 -0.0084291 0 0 Z " fill="#3A4578" transform="translate(288.3125,180.875)"/>
<path d="M0 0 C5.63821521 3.79225151 10.22669589 8.31431308 12 15 C13.74939367 26.84589428 10.23767165 38.69087932 7.62939453 50.16845703 C6.84601594 53.69274907 6.14177834 57.2296906 5.45507812 60.77392578 C4.75185573 64.21383016 3.88104061 67.60170051 3 71 C-2.52422265 71.22519066 -7.22780247 70.4373778 -12.56640625 69.06640625 C-13.36352524 68.86901352 -14.16064423 68.67162079 -14.98191833 68.46824646 C-17.51075797 67.840638 -20.03666949 67.20210041 -22.5625 66.5625 C-25.0923662 65.92852629 -27.62279093 65.29688728 -30.15379333 64.66746521 C-31.72281598 64.27657154 -33.29110997 63.88273732 -34.85853577 63.48548889 C-38.88911342 62.47401991 -42.88523692 61.61707228 -47 61 C-47.28991102 54.34771744 -46.21008616 48.52308659 -44.6875 42.0625 C-43.20836826 35.63267879 -41.82772093 29.2540721 -40.88085938 22.72338867 C-39.82408206 15.55043158 -38.44237448 10.11052237 -33 5 C-32.51273437 4.51402344 -32.02546875 4.02804688 -31.5234375 3.52734375 C-22.73457988 -4.53302567 -10.45007359 -5.39729076 0 0 Z " fill="#DEE4EE" transform="translate(382,143)"/>
<path d="M0 0 C1.31742188 0.02707031 2.63484375 0.05414063 3.9921875 0.08203125 C16.12431991 0.62431991 16.12431991 0.62431991 17.75 2.25 C17.85067221 5.34443039 17.88614292 8.41658393 17.87939453 11.51147461 C17.88114685 12.48376511 17.88289917 13.4560556 17.88470459 14.45780945 C17.88912542 17.68933875 17.88618408 20.92081384 17.8828125 24.15234375 C17.88348553 26.3881481 17.88445554 28.62395237 17.88571167 30.85975647 C17.887189 35.55323989 17.88503316 40.24670433 17.88037109 44.94018555 C17.87467708 50.96760796 17.87795053 56.99498581 17.88394356 63.02240658 C17.88755102 67.64193561 17.88640967 72.26145401 17.88381577 76.88098335 C17.88314684 79.10382658 17.88397372 81.32667075 17.88629532 83.54951286 C17.8888245 86.65274497 17.88497729 89.7559042 17.87939453 92.85913086 C17.88141876 93.78544312 17.88344299 94.71175537 17.88552856 95.6661377 C17.88129883 96.93021706 17.88129883 96.93021706 17.87698364 98.21983337 C17.87660662 98.95412536 17.87622959 99.68841734 17.87584114 100.44496059 C17.75 102.25 17.75 102.25 16.75 104.25 C12.01303914 105.82898695 7.21056587 105.43447895 2.25 105.4375 C1.19167969 105.44974609 0.13335938 105.46199219 -0.95703125 105.47460938 C-1.97152344 105.47654297 -2.98601563 105.47847656 -4.03125 105.48046875 C-4.96001953 105.48457764 -5.88878906 105.48868652 -6.84570312 105.49291992 C-9.25 105.25 -9.25 105.25 -12.25 103.25 C-12.63311005 101.45054722 -12.63311005 101.45054722 -12.64440918 99.23329163 C-12.65575897 98.39346237 -12.66710876 97.55363312 -12.67880249 96.68835449 C-12.67587189 95.76518433 -12.67294128 94.84201416 -12.66992188 93.89086914 C-12.67839142 92.92003891 -12.68686096 91.94920868 -12.69558716 90.94895935 C-12.71905929 87.72755978 -12.71997687 84.50663499 -12.71875 81.28515625 C-12.7258455 79.05317491 -12.73354358 76.82119541 -12.74182129 74.58921814 C-12.75528968 69.90586276 -12.75682431 65.22267601 -12.75097656 60.53930664 C-12.74507895 54.5285208 -12.77566431 48.51854225 -12.81609344 42.50791264 C-12.84190472 37.8968823 -12.84485381 33.286048 -12.84120178 28.67495537 C-12.84289926 26.45850025 -12.85260162 24.24203667 -12.87034607 22.02565193 C-12.89240515 18.92938886 -12.88289988 15.8347813 -12.86523438 12.73852539 C-12.87849762 11.81737946 -12.89176086 10.89623352 -12.90542603 9.94717407 C-12.87430905 7.60787942 -12.80524238 5.52231266 -12.25 3.25 C-8.4124808 -0.17428553 -5.02516392 -0.10339843 0 0 Z " fill="#3D487B" transform="translate(854.25,186.75)"/>
<path d="M0 0 C-0.74116833 8.65021459 -2.51711225 17.06998147 -4.25 25.5625 C-4.56479831 27.11949421 -4.87933065 28.67654222 -5.19360352 30.23364258 C-7.74176219 42.83353976 -10.34431965 55.42232512 -13 68 C-19.02487844 68.21908649 -24.17549506 67.49398047 -30 66 C-31.16208984 65.71382812 -31.16208984 65.71382812 -32.34765625 65.421875 C-34.23382399 64.95615457 -36.11722494 64.47925183 -38 64 C-38.28991102 57.34771744 -37.21008616 51.52308659 -35.6875 45.0625 C-34.20836826 38.63267879 -32.82772093 32.2540721 -31.88085938 25.72338867 C-30.82408206 18.55043158 -29.44237448 13.11052237 -24 8 C-23.51273437 7.51402344 -23.02546875 7.02804688 -22.5234375 6.52734375 C-15.62249769 0.19840698 -8.91838366 -0.43543645 0 0 Z " fill="#FBFBFC" transform="translate(373,140)"/>
<path d="M0 0 C0.33 0.99 0.66 1.98 1 3 C2.28777344 3.12246094 3.57554687 3.24492187 4.90234375 3.37109375 C9.88122279 3.92430253 14.68812521 4.9271518 19.5625 6.0625 C20.38041016 6.24876953 21.19832031 6.43503906 22.04101562 6.62695312 C24.02835896 7.08020687 26.01433201 7.53946212 28 8 C27.01 8.33 26.02 8.66 25 9 C24.88664307 10.23226318 24.77328613 11.46452637 24.65649414 12.73413086 C23.99514406 18.65913154 22.75277632 24.43092852 21.49609375 30.25390625 C21.13198143 31.96609596 21.13198143 31.96609596 20.76051331 33.71287537 C19.99026081 37.33030264 19.21397704 40.94640428 18.4375 44.5625 C17.91170933 47.02660738 17.38631457 49.49079928 16.86132812 51.95507812 C15.57879798 57.97103753 14.29132399 63.98592242 13 70 C6.907655 69.19212411 3.33639444 68.39593304 -1 64 C-7.51410389 54.82170081 -9.31038034 46.88234868 -7.66748047 35.74603271 C-6.62008945 29.85627874 -5.30827008 24.02367964 -4 18.1875 C-3.61335233 16.4162839 -3.2279267 14.64480057 -2.84375 12.87304688 C-1.90987443 8.57882461 -0.95960261 4.28854319 0 0 Z " fill="#828AB1" transform="translate(334,201)"/>
<path d="M0 0 C2.5625 2.0625 2.5625 2.0625 4 4 C4.515625 3.731875 5.03125 3.46375 5.5625 3.1875 C6.366875 2.795625 7.17125 2.40375 8 2 C9.051875 1.443125 10.10375 0.88625 11.1875 0.3125 C15.53603029 -1.5204289 19.50082526 -1.25538771 24 0 C27.46121174 2.16325734 28.70741598 3.12224793 30 7 C30.08397157 9.35680213 30.10728187 11.71594081 30.09765625 14.07421875 C30.0962413 14.7580513 30.09482635 15.44188385 30.09336853 16.1464386 C30.08777876 18.32683722 30.07522822 20.50713251 30.0625 22.6875 C30.05748367 24.16731622 30.052921 25.64713406 30.04882812 27.12695312 C30.03781271 30.75133557 30.02055512 34.3756577 30 38 C27.69 38 25.38 38 23 38 C23.01047363 37.27409668 23.02094727 36.54819336 23.03173828 35.80029297 C23.0734696 32.49189759 23.09938064 29.18355776 23.125 25.875 C23.14175781 24.73289062 23.15851563 23.59078125 23.17578125 22.4140625 C23.18222656 21.30546875 23.18867188 20.196875 23.1953125 19.0546875 C23.20578613 18.03874512 23.21625977 17.02280273 23.22705078 15.97607422 C22.97579498 12.68273211 22.26339616 10.04734037 21 7 C18.56539024 5.78269512 17.25609714 5.95308186 14.5625 6.1875 C13.78003906 6.24292969 12.99757813 6.29835938 12.19140625 6.35546875 C9.21507141 7.23086135 8.57283521 8.34676959 7 11 C6.49746855 13.9935686 6.49746855 13.9935686 6.48828125 17.296875 C6.45283203 18.50214844 6.41738281 19.70742188 6.38085938 20.94921875 C6.35830078 22.20347656 6.33574219 23.45773437 6.3125 24.75 C6.27833984 26.01972656 6.24417969 27.28945313 6.20898438 28.59765625 C6.12650999 31.73168274 6.05735516 34.86542955 6 38 C3.69 38 1.38 38 -1 38 C-1.02505615 37.13197754 -1.0501123 36.26395508 -1.07592773 35.36962891 C-1.17099484 32.15286837 -1.27023203 28.93627151 -1.37231445 25.71972656 C-1.41565846 24.3268741 -1.45733396 22.93396869 -1.49731445 21.54101562 C-1.55502932 19.54023349 -1.61921869 17.53964141 -1.68359375 15.5390625 C-1.72025146 14.33459473 -1.75690918 13.13012695 -1.79467773 11.88916016 C-1.81052987 9.06003633 -1.81052987 9.06003633 -3 7 C-7.61546691 5.90480446 -9.69053162 5.55131217 -14.21484375 7.1015625 C-16.67719806 8.8740213 -16.98600617 9.92769557 -17.57202148 12.95556641 C-17.81876843 16.73107941 -17.88249205 20.46651674 -17.875 24.25 C-17.895625 25.56742187 -17.91625 26.88484375 -17.9375 28.2421875 C-17.98464831 31.49542113 -18.00443602 34.74649409 -18 38 C-20.31 38 -22.62 38 -25 38 C-25.02464928 32.74894558 -25.04283568 27.49792455 -25.05493164 22.24682617 C-25.05997218 20.45905979 -25.06680454 18.67129755 -25.07543945 16.88354492 C-25.0875173 14.31948832 -25.09323094 11.75548603 -25.09765625 9.19140625 C-25.10281754 8.3872377 -25.10797882 7.58306915 -25.11329651 6.75453186 C-25.11349215 4.83598285 -25.06201983 2.91754632 -25 1 C-24 0 -24 0 -21.4375 -0.0625 C-20.2309375 -0.0315625 -20.2309375 -0.0315625 -19 0 C-19 1.32 -19 2.64 -19 4 C-17.906875 3.360625 -16.81375 2.72125 -15.6875 2.0625 C-10.29009448 -1.09447304 -6.05621825 -1.46486145 0 0 Z " fill="#465181" transform="translate(443,362)"/>
<path d="M0 0 C5.47959557 4.19985987 7.34645736 9.28532284 8.2421875 15.984375 C8.56395846 22.53563167 6.53765674 28.18562245 2.52734375 33.28515625 C-0.49333342 36.37950847 -2.36978034 37.74361866 -6.69140625 38.17578125 C-8.0990625 38.16804688 -8.0990625 38.16804688 -9.53515625 38.16015625 C-10.47359375 38.1653125 -11.41203125 38.17046875 -12.37890625 38.17578125 C-15.07563301 37.90610857 -16.72464918 37.28338215 -19.03515625 35.91015625 C-19.09574219 37.12574219 -19.15632813 38.34132813 -19.21875 39.59375 C-19.30313957 41.17839853 -19.38778835 42.76303327 -19.47265625 44.34765625 C-19.53163086 45.55131836 -19.53163086 45.55131836 -19.59179688 46.77929688 C-19.921875 52.796875 -19.921875 52.796875 -21.03515625 53.91015625 C-23.01515625 53.91015625 -24.99515625 53.91015625 -27.03515625 53.91015625 C-27.03515625 35.76015625 -27.03515625 17.61015625 -27.03515625 -1.08984375 C-25.38515625 -1.08984375 -23.73515625 -1.08984375 -22.03515625 -1.08984375 C-21.37515625 -0.09984375 -20.71515625 0.89015625 -20.03515625 1.91015625 C-19.29265625 1.43578125 -18.55015625 0.96140625 -17.78515625 0.47265625 C-12.14732234 -2.73065847 -5.82955873 -3.12177905 0 0 Z M-20.03515625 8.91015625 C-20.53337992 12.01224368 -20.45176984 15.1475526 -20.47265625 18.28515625 C-20.50552734 19.14882813 -20.53839844 20.0125 -20.57226562 20.90234375 C-20.66180377 26.20353669 -20.66180377 26.20353669 -17.69140625 30.453125 C-14.60742451 32.14477969 -12.56211158 32.83817757 -9.03515625 32.91015625 C-5.59216646 31.69498338 -3.59355964 30.56483609 -1.22265625 27.78515625 C1.4767168 21.24983203 1.52419538 15.40227609 -1.0234375 8.796875 C-2.54497441 5.95941427 -4.01671218 4.96310186 -7.03515625 3.91015625 C-12.73100796 3.19817479 -16.04972543 4.92472543 -20.03515625 8.91015625 Z " fill="#434F81" transform="translate(289.03515625,363.08984375)"/>
<path d="M0 0 C3.79146226 2.64520623 6.85340308 5.31130334 8.32421875 9.83203125 C9.19783948 14.74497362 8.48018173 17.82110716 5.6875 21.875 C2.47244346 25.28351267 -0.53954466 27.52575937 -5.3125 27.875 C-6.983125 27.99875 -6.983125 27.99875 -8.6875 28.125 C-14.11957299 27.75037428 -17.79744967 25.96188393 -22.1875 22.8125 C-25.21071811 18.63334556 -25.82510789 14.98554536 -25.3125 9.875 C-23.64736867 5.16505709 -21.33808959 2.51850719 -17.125 -0.125 C-11.1549659 -1.69091058 -5.88688234 -1.99931853 0 0 Z " fill="#3E497C" transform="translate(865.3125,148.125)"/>
<path d="M0 0 C4.65212047 3.58600953 4.65212047 3.58600953 6 7.3125 C6.6413433 12.55548149 6.62863646 16.87187477 4.5 21.75 C0.66334206 25.68257439 -2.9542109 28.16415106 -8.56640625 28.4375 C-14.80702122 27.99107747 -18.61907661 26.4950131 -23.25 22.25 C-25.76251563 18.03256306 -26.30494445 14.19161119 -26 9.3125 C-24.73576566 4.92094913 -22.48043151 2.69488426 -18.9375 -0.125 C-13.0929135 -3.02843975 -5.78995676 -3.0053801 0 0 Z " fill="#3D477A" transform="translate(301,265.6875)"/>
<path d="M0 0 C1.98 0 3.96 0 6 0 C7.58403524 1.58403524 7.21974935 3.2771638 7.31640625 5.47265625 C7.35830078 6.37177734 7.40019531 7.27089844 7.44335938 8.19726562 C7.48267578 9.14279297 7.52199219 10.08832031 7.5625 11.0625 C7.60568359 12.01189453 7.64886719 12.96128906 7.69335938 13.93945312 C7.79979276 16.29281353 7.90181008 18.64628354 8 21 C8.51731689 20.7119751 9.03463379 20.4239502 9.56762695 20.12719727 C15.40085234 17.01907103 19.51705867 16.0395229 26 18 C28.77270108 20.20684371 30.42745556 21.85491112 32 25 C32.08586809 27.32416296 32.10711043 29.65083307 32.09765625 31.9765625 C32.0962413 32.66181 32.09482635 33.3470575 32.09336853 34.05307007 C32.08776675 36.24375761 32.07521406 38.4343433 32.0625 40.625 C32.05748522 42.10937352 32.05292228 43.59374865 32.04882812 45.078125 C32.03779677 48.71878315 32.02053099 52.35938164 32 56 C29.69 56 27.38 56 25 56 C24.67 46.1 24.34 36.2 24 26 C20.00905111 23.9253098 20.00905111 23.9253098 16 24.125 C15.01 24.22167969 15.01 24.22167969 14 24.3203125 C11.14326651 25.29115552 9.90081401 26.66400728 8 29 C7.36085024 31.98687874 7.36085024 31.98687874 7.390625 35.296875 C7.35839844 36.50214844 7.32617188 37.70742188 7.29296875 38.94921875 C7.27169922 40.83060547 7.27169922 40.83060547 7.25 42.75 C7.22035156 44.01972656 7.19070313 45.28945313 7.16015625 46.59765625 C7.08946049 49.73183485 7.03675988 52.86526956 7 56 C4.69 56 2.38 56 0 56 C0 37.52 0 19.04 0 0 Z " fill="#495484" transform="translate(306,344)"/>
<path d="M0 0 C3.89465456 2.5399921 6.79759339 5.38867705 8.6875 9.75 C8.98760938 13.15123968 8.98700482 16.45885284 8.875 19.875 C7.875 20.875 7.875 20.875 5.46655273 20.98852539 C4.42442627 20.98328857 3.3822998 20.97805176 2.30859375 20.97265625 C1.18388672 20.96943359 0.05917969 20.96621094 -1.09960938 20.96289062 C-2.28361328 20.95451172 -3.46761719 20.94613281 -4.6875 20.9375 C-5.87537109 20.93298828 -7.06324219 20.92847656 -8.28710938 20.92382812 C-11.23312226 20.91199675 -14.17903681 20.89551287 -17.125 20.875 C-16.70388893 22.33477644 -16.265687 23.78962998 -15.8203125 25.2421875 C-15.57812988 26.05284668 -15.33594727 26.86350586 -15.08642578 27.69873047 C-14.19838164 30.22815352 -14.19838164 30.22815352 -11 32 C-5.67948904 33.2014057 -1.14412125 32.70859808 4.08203125 31.265625 C4.67371094 31.13671875 5.26539063 31.0078125 5.875 30.875 C6.875 31.875 6.875 31.875 6.9375 34.4375 C6.916875 35.241875 6.89625 36.04625 6.875 36.875 C0.04765189 39.42756709 -7.66773371 40.61222646 -14.640625 37.89453125 C-19.33676147 35.06815282 -22.36949407 32.1415178 -24.125 26.875 C-24.29931213 24.25460286 -24.40184435 21.68437916 -24.4375 19.0625 C-24.48100586 18.01352539 -24.48100586 18.01352539 -24.52539062 16.94335938 C-24.58804817 11.79098154 -23.4615699 8.98765851 -20.125 4.875 C-14.10498579 -0.6819362 -7.99032193 -2.87651589 0 0 Z M-15.125 7.875 C-16.86023928 10.51917414 -17.125 11.65965943 -17.125 14.875 C-10.855 14.875 -4.585 14.875 1.875 14.875 C1.57272282 8.36074441 1.57272282 8.36074441 -0.75 5.9375 C-6.02604111 3.57716582 -10.67241676 4.31293341 -15.125 7.875 Z " fill="#5B6591" transform="translate(583.125,362.125)"/>
<path d="M0 0 C2.07573348 3.27302464 2.29668802 6.02514208 2.4140625 9.859375 C2.45273437 10.97441406 2.49140625 12.08945312 2.53125 13.23828125 C2.5621875 14.39714844 2.593125 15.55601562 2.625 16.75 C2.66367187 17.92433594 2.70234375 19.09867187 2.7421875 20.30859375 C2.8363982 23.20557268 2.92201602 26.10254626 3 29 C4.32 29.66 5.64 30.32 7 31 C7 32.32 7 33.64 7 35 C3.8125 35.75 3.8125 35.75 0 36 C-2.9375 34.0625 -2.9375 34.0625 -5 32 C-5.598125 32.474375 -6.19625 32.94875 -6.8125 33.4375 C-11.12532029 36.51808592 -15.87400589 36.8033926 -21 36 C-24.0735547 34.29459077 -26.40579136 32.18841729 -28 29 C-28.39400788 24.90231801 -28.23388098 22.48647243 -26.4375 18.75 C-21.10169857 12.73012146 -15.0273146 12.59189331 -7.37890625 12.11328125 C-6.20134766 12.05720703 -6.20134766 12.05720703 -5 12 C-5.26393501 8.56769552 -5.26393501 8.56769552 -6 5 C-9.37559426 2.74960383 -9.97975643 2.82383991 -13.8125 3.3125 C-15.13314453 3.47492188 -15.13314453 3.47492188 -16.48046875 3.640625 C-19.3297363 4.04703215 -22.1693368 4.47856204 -25 5 C-25 3.35 -25 1.7 -25 0 C-17.04822365 -4.25327572 -7.61105541 -6.22722715 0 0 Z M-20 20 C-21.19988045 25.28199593 -21.19988045 25.28199593 -19 30 C-14.06788656 31.04752852 -10.07366835 30.67367426 -5.8125 28 C-3.27911984 23.80681905 -3.96253803 21.70848124 -5 17 C-10.8022175 16.63736141 -14.63999211 17.74315457 -20 20 Z " fill="#374477" transform="translate(510,365)"/>
<path d="M0 0 C3.12146693 3.3228519 3.10178724 5.46866735 3.25390625 9.9453125 C3.29580078 11.11191406 3.33769531 12.27851563 3.38085938 13.48046875 C3.42017578 14.70378906 3.45949219 15.92710937 3.5 17.1875 C3.54318359 18.41855469 3.58636719 19.64960938 3.63085938 20.91796875 C3.73718704 23.96602853 3.83921781 27.0141719 3.9375 30.0625 C5.2575 30.3925 6.5775 30.7225 7.9375 31.0625 C7.980221 32.72861905 7.97813832 34.39632885 7.9375 36.0625 C6.9375 37.0625 6.9375 37.0625 4.1875 37.375 C0.26066275 36.99741949 -1.23596736 35.72276601 -4.0625 33.0625 C-4.84625 33.7225 -5.63 34.3825 -6.4375 35.0625 C-10.70329783 37.90974273 -15.11065265 37.75691599 -20.0625 37.0625 C-23.74873011 35.44977433 -24.81605 34.432175 -27.0625 31.0625 C-27.76438829 26.70426342 -27.61279428 23.1172307 -25.5625 19.1875 C-19.51864989 14.05022741 -11.66535911 13.25044674 -4.0625 12.0625 C-4.3925 9.4225 -4.7225 6.7825 -5.0625 4.0625 C-11.70659958 3.84817421 -17.59455867 4.55016299 -24.0625 6.0625 C-24.0625 4.4125 -24.0625 2.7625 -24.0625 1.0625 C-16.33214607 -3.07234047 -7.85205977 -4.96762965 0 0 Z M-19.0625 21.0625 C-20.49310128 23.92370256 -20.44942581 25.90260585 -20.0625 29.0625 C-17.30711149 31.57476599 -15.78882317 32.09276347 -12.0625 31.9375 C-8.9619905 31.03318473 -6.68601299 29.93643785 -4.0625 28.0625 C-2.69297327 25.32344655 -2.93628639 23.09162668 -3.0625 20.0625 C-3.3925 19.4025 -3.7225 18.7425 -4.0625 18.0625 C-9.85396822 17.70053324 -13.7485737 18.68039511 -19.0625 21.0625 Z " fill="#4A5686" transform="translate(374.0625,363.9375)"/>
<path d="M0 0 C-0.33 1.98 -0.66 3.96 -1 6 C-2.155 5.67 -3.31 5.34 -4.5 5 C-8.83486225 3.9297587 -12.53967248 3.62200614 -17 4 C-19.15565917 5.06718298 -19.15565917 5.06718298 -20 7 C-20.15824379 9.04183617 -20.15824379 9.04183617 -19 11 C-16.54337341 12.03058481 -14.30031633 12.80358594 -11.75 13.5 C-6.75295952 14.89609031 -2.83966976 16.36241812 1 20 C2.53214888 23.06429776 2.22938548 25.6165642 2 29 C0.67571537 32.2371402 -0.60123486 33.69567923 -3.375 35.8125 C-11.74545726 38.55454634 -20.1156929 37.71026216 -28 34 C-27.67 32.35 -27.34 30.7 -27 29 C-26.13375 29.165 -25.2675 29.33 -24.375 29.5 C-18.30238178 30.39266231 -12.12033868 30.07639812 -6 30 C-6 27.69 -6 25.38 -6 23 C-7.51980469 22.54560547 -7.51980469 22.54560547 -9.0703125 22.08203125 C-10.42210689 21.6595955 -11.77365666 21.23637642 -13.125 20.8125 C-13.79015625 20.61591797 -14.4553125 20.41933594 -15.140625 20.21679688 C-20.06487948 18.64779422 -23.36258583 16.71539855 -27 13 C-28.03998639 9.88537409 -27.76673313 7.17646583 -27 4 C-20.0688806 -5.58125329 -9.71691783 -3.70168298 0 0 Z " fill="#4D5785" transform="translate(550,364)"/>
<path d="M0 0 C1.98 0 3.96 0 6 0 C6 3.3 6 6.6 6 10 C9.63 10 13.26 10 17 10 C17 11.98 17 13.96 17 16 C13.37 16 9.74 16 6 16 C6.14009116 20.14610213 6.28678753 24.29178241 6.4375 28.4375 C6.47681641 29.62150391 6.51613281 30.80550781 6.55664062 32.02539062 C6.61948242 33.71245117 6.61948242 33.71245117 6.68359375 35.43359375 C6.72025146 36.47572021 6.75690918 37.51784668 6.79467773 38.59155273 C6.73515341 40.9499826 6.73515341 40.9499826 8 42 C9.68183948 42.23287008 11.3712416 42.41264166 13.0625 42.5625 C13.98160156 42.64628906 14.90070312 42.73007812 15.84765625 42.81640625 C16.91306641 42.90728516 16.91306641 42.90728516 18 43 C18 44.65 18 46.3 18 48 C14.31313877 49.84343062 10.03302333 49.3556682 6 49 C3.04334644 47.76806102 1.60814103 46.94516698 -0.11279297 44.27050781 C-1.24555346 41.37158857 -1.22580163 39.03176617 -1.1953125 35.921875 C-1.18886719 34.76171875 -1.18242188 33.6015625 -1.17578125 32.40625 C-1.15902344 31.1996875 -1.14226563 29.993125 -1.125 28.75 C-1.11597656 27.52796875 -1.10695313 26.3059375 -1.09765625 25.046875 C-1.07409513 22.03105218 -1.04119706 19.01562508 -1 16 C-2.98 16 -4.96 16 -7 16 C-7.38218767 14.34385343 -7.71395102 12.67542976 -8 11 C-7 10 -7 10 -3.9375 9.9375 C-2.4834375 9.9684375 -2.4834375 9.9684375 -1 10 C-0.67 6.7 -0.34 3.4 0 0 Z " fill="#485282" transform="translate(604,352)"/>
<path d="M0 0 C0 2.31 0 4.62 0 7 C-1.98567708 7.22786458 -3.97135417 7.45572917 -5.95703125 7.68359375 C-8.19396393 7.97170735 -8.19396393 7.97170735 -11 9 C-13.31813592 14.72265898 -13.20968149 20.14865817 -13.0625 26.25 C-13.0280525 28.02596009 -12.99791536 29.80201046 -12.97265625 31.578125 C-12.95468994 32.35575195 -12.93672363 33.13337891 -12.91821289 33.93457031 C-13 36 -13 36 -14 39 C-15.99954746 39.04254356 -18.00041636 39.04080783 -20 39 C-21.78830448 37.21169552 -21.12848711 34.80418848 -21.13894653 32.42358398 C-21.1369223 31.64442627 -21.13489807 30.86526855 -21.1328125 30.0625 C-21.13376923 29.267229 -21.13472595 28.47195801 -21.13571167 27.65258789 C-21.13639343 25.9679354 -21.13453943 24.28328029 -21.13037109 22.59863281 C-21.12502275 20.01100803 -21.13031619 17.42355684 -21.13671875 14.8359375 C-21.13605797 13.20312461 -21.1347768 11.57031184 -21.1328125 9.9375 C-21.13483673 9.15834229 -21.13686096 8.37918457 -21.13894653 7.57641602 C-21.11495105 2.11495105 -21.11495105 2.11495105 -20 1 C-18.33382885 0.95936168 -16.66611905 0.957279 -15 1 C-14.34 2.32 -13.68 3.64 -13 5 C-12.236875 4.360625 -11.47375 3.72125 -10.6875 3.0625 C-7.01749573 0.2459851 -4.50459352 -0.12174577 0 0 Z " fill="#354173" transform="translate(689,361)"/>
<path d="M0 0 C1.125 4.75 1.125 4.75 0 7 C-2.24348907 7.56310682 -4.48768816 7.89225193 -6.7734375 8.2421875 C-9.71339663 9.24280517 -10.41515371 10.34590334 -12 13 C-12.50184739 15.89560969 -12.50184739 15.89560969 -12.51171875 19.078125 C-12.54716797 20.23828125 -12.58261719 21.3984375 -12.61914062 22.59375 C-12.64169922 23.8003125 -12.66425781 25.006875 -12.6875 26.25 C-12.72166016 27.47203125 -12.75582031 28.6940625 -12.79101562 29.953125 C-12.87347162 32.96865846 -12.94263201 35.98390194 -13 39 C-15.31 39 -17.62 39 -20 39 C-20 26.46 -20 13.92 -20 1 C-18.02 1 -16.04 1 -14 1 C-13.34 1.99 -12.68 2.98 -12 4 C-11.401875 3.525625 -10.80375 3.05125 -10.1875 2.5625 C-6.76700592 0.11928994 -4.09052446 -0.11055472 0 0 Z " fill="#475183" transform="translate(410,361)"/>
<path d="M0 0 C4.53739773 2.43852469 7.14893886 5.56668215 8.9375 10.375 C10.91593233 17.71117455 10.53758974 24.20558162 7 31 C4.59186593 34.62825534 2.11691851 37.40019922 -2 39 C-4.7265625 39.265625 -4.7265625 39.265625 -7.625 39.25 C-8.58664062 39.25515625 -9.54828125 39.2603125 -10.5390625 39.265625 C-13 39 -13 39 -15 37 C-15 35.68 -15 34.36 -15 33 C-13 32 -13 32 -10.25 32.625 C-6.16404824 33.09645597 -4.40077027 32.24141677 -1 30 C1.88543109 25.23451451 2.54560172 19.92806254 1.53125 14.484375 C0.30910352 9.8338845 0.30910352 9.8338845 -3.11328125 6.74609375 C-4.04720703 6.37677734 -4.04720703 6.37677734 -5 6 C-5 5.34 -5 4.68 -5 4 C-4.34 4 -3.68 4 -3 4 C-3 3.34 -3 2.68 -3 2 C-6.3 1.67 -9.6 1.34 -13 1 C-8.11149851 -1.44425075 -5.19513333 -1.47180843 0 0 Z " fill="#515C8A" transform="translate(287,362)"/>
<path d="M0 0 C0.80824219 0.10183594 1.61648438 0.20367187 2.44921875 0.30859375 C3.06410156 0.39238281 3.67898438 0.47617187 4.3125 0.5625 C4.3125 0.8925 4.3125 1.2225 4.3125 1.5625 C2.45625 1.500625 2.45625 1.500625 0.5625 1.4375 C-2.70387962 1.42591709 -4.9021947 1.7056298 -7.6875 3.5625 C-7.3575 4.5525 -7.0275 5.5425 -6.6875 6.5625 C-8.14542969 7.11164063 -8.14542969 7.11164063 -9.6328125 7.671875 C-11.40289882 8.7263485 -11.40289882 8.7263485 -12.6875 10.5625 C-13.63055873 15.29499704 -13.5720309 19.99939471 -13.5625 24.8125 C-13.583125 26.12992187 -13.60375 27.44734375 -13.625 28.8046875 C-13.67214831 32.05792113 -13.69193602 35.30899409 -13.6875 38.5625 C-15.9975 38.5625 -18.3075 38.5625 -20.6875 38.5625 C-20.71214928 33.31144558 -20.73033568 28.06042455 -20.74243164 22.80932617 C-20.74747218 21.02155979 -20.75430454 19.23379755 -20.76293945 17.44604492 C-20.7750173 14.88198832 -20.78073094 12.31798603 -20.78515625 9.75390625 C-20.79031754 8.9497377 -20.79547882 8.14556915 -20.80079651 7.31703186 C-20.80099215 5.39848285 -20.74951983 3.48004632 -20.6875 1.5625 C-19.6875 0.5625 -19.6875 0.5625 -17.125 0.5 C-15.9184375 0.5309375 -15.9184375 0.5309375 -14.6875 0.5625 C-14.6875 1.8825 -14.6875 3.2025 -14.6875 4.5625 C-13.594375 3.923125 -12.50125 3.28375 -11.375 2.625 C-7.3880006 0.29298148 -4.6227247 -0.60296409 0 0 Z " fill="#4B5787" transform="translate(438.6875,361.4375)"/>
<path d="M0 0 C1.16015625 0.10054688 1.16015625 0.10054688 2.34375 0.203125 C4.89745895 0.85080481 5.73954663 1.85069397 7.5 3.75 C10.10611077 4.47197162 10.10611077 4.47197162 12.5 4.75 C11.51 5.245 11.51 5.245 10.5 5.75 C10.17 16.31 9.84 26.87 9.5 37.75 C7.19 37.75 4.88 37.75 2.5 37.75 C2.47494385 36.88197754 2.4498877 36.01395508 2.42407227 35.11962891 C2.32900516 31.90286837 2.22976797 28.68627151 2.12768555 25.46972656 C2.08434154 24.0768741 2.04266604 22.68396869 2.00268555 21.29101562 C1.94497068 19.29023349 1.88078131 17.28964141 1.81640625 15.2890625 C1.77974854 14.08459473 1.74309082 12.88012695 1.70532227 11.63916016 C1.68947013 8.81003633 1.68947013 8.81003633 0.5 6.75 C-1.84386809 5.83968728 -1.84386809 5.83968728 -4.5625 5.125 C-5.94115234 4.73441406 -5.94115234 4.73441406 -7.34765625 4.3359375 C-8.41306641 4.04589844 -8.41306641 4.04589844 -9.5 3.75 C-6.75109372 -0.37335943 -4.63954461 -0.46395446 0 0 Z " fill="#3F4A79" transform="translate(439.5,362.25)"/>
<path d="M0 0 C8.00826446 -0.78512397 8.00826446 -0.78512397 12 2.375 C15.16943475 6.53488311 15.11890214 8.75007403 15.09765625 13.9765625 C15.0962413 14.66181 15.09482635 15.3470575 15.09336853 16.05307007 C15.08776675 18.24375761 15.07521406 20.4343433 15.0625 22.625 C15.05748522 24.10937352 15.05292228 25.59374865 15.04882812 27.078125 C15.03779677 30.71878315 15.02053099 34.35938164 15 38 C12.69 38 10.38 38 8 38 C7.67 28.1 7.34 18.2 7 8 C5.68 7.34 4.36 6.68 3 6 C3 5.34 3 4.68 3 4 C1.68 4 0.36 4 -1 4 C-0.67 2.68 -0.34 1.36 0 0 Z " fill="#424D7F" transform="translate(323,362)"/>
<path d="M0 0 C2.31 0 4.62 0 7 0 C7 12.54 7 25.08 7 38 C4.69 38 2.38 38 0 38 C0 25.46 0 12.92 0 0 Z " fill="#48517E" transform="translate(650,362)"/>
<path d="M0 0 C3.89465456 2.5399921 6.79759339 5.38867705 8.6875 9.75 C8.98419247 13.11251466 8.875 16.49942135 8.875 19.875 C-0.035 19.875 -8.945 19.875 -18.125 19.875 C-18.125 18.555 -18.125 17.235 -18.125 15.875 C-11.195 15.875 -4.265 15.875 2.875 15.875 C1.10343638 9.73706929 1.10343638 9.73706929 -3.125 5.875 C-6.11824472 5.25980808 -9.07495705 5.00534372 -12.125 4.875 C-12.455 3.225 -12.785 1.575 -13.125 -0.125 C-8.46247142 -1.67917619 -4.63746673 -1.66948802 0 0 Z " fill="#414C7F" transform="translate(583.125,362.125)"/>
<path d="M0 0 C-1.485 1.485 -1.485 1.485 -3 3 C-1.68 3.33 -0.36 3.66 1 4 C-1.64 4.66 -4.28 5.32 -7 6 C-7.26932521 10.65052872 -7.26932521 10.65052872 -6 15 C-5.32453125 15 -4.6490625 15 -3.953125 15 C8 15 8 15 10 16 C9.67 16.99 9.34 17.98 9 19 C8.34 19 7.68 19 7 19 C6.154375 19.495 5.30875 19.99 4.4375 20.5 C0.13729544 22.3764529 -3.37608052 22.9082699 -8 22 C-11.06648634 20.27510144 -13.40285131 18.19429738 -15 15 C-15.39400788 10.90231801 -15.23388098 8.48647243 -13.4375 4.75 C-9.95065835 0.81612737 -5.39529 -2.3739276 0 0 Z " fill="#4B5787" transform="translate(497,379)"/>
<path d="M0 0 C-0.99 0.66 -1.98 1.32 -3 2 C-2.01 2.66 -1.02 3.32 0 4 C-2.64 4.66 -5.28 5.32 -8 6 C-8.27635161 10.02130715 -8.27635161 10.02130715 -8 14 C-6.15811388 16.05270463 -6.15811388 16.05270463 -4 17 C-4.99 17.66 -5.98 18.32 -7 19 C-7 19.66 -7 20.32 -7 21 C-4.36 21 -1.72 21 1 21 C1 21.33 1 21.66 1 22 C-9.77493398 22.56489945 -9.77493398 22.56489945 -14 19 C-16.69650878 14.95523682 -16.65199497 11.7478608 -16 7 C-13.65197145 2.49961194 -10.5647483 1.07676207 -6 -0.6171875 C-3.69057943 -1.05922503 -2.21563994 -0.72206123 0 0 Z " fill="#4F5A89" transform="translate(363,379)"/>
<path d="M0 0 C-0.66 1.98 -1.32 3.96 -2 6 C-2.33 6 -2.66 6 -3 6 C-3.33 8.31 -3.66 10.62 -4 13 C-5.98 13 -7.96 13 -10 13 C-10 12.67 -10 12.34 -10 12 C-8.35 12 -6.7 12 -5 12 C-5.26393501 8.56769552 -5.26393501 8.56769552 -6 5 C-9.37559426 2.74960383 -9.97975643 2.82383991 -13.8125 3.3125 C-15.13314453 3.47492188 -15.13314453 3.47492188 -16.48046875 3.640625 C-19.3297363 4.04703215 -22.1693368 4.47856204 -25 5 C-25 3.35 -25 1.7 -25 0 C-16.7342843 -4.42119677 -8.01138736 -5.94393256 0 0 Z " fill="#606894" transform="translate(510,365)"/>
<path d="M0 0 C0 2.31 0 4.62 0 7 C-1.98567708 7.22786458 -3.97135417 7.45572917 -5.95703125 7.68359375 C-8.19396393 7.97170735 -8.19396393 7.97170735 -11 9 C-11.33 9.66 -11.66 10.32 -12 11 C-12 10.01 -12 9.02 -12 8 C-12.99 8 -13.98 8 -15 8 C-15 6.35 -15 4.7 -15 3 C-16.32 3 -17.64 3 -19 3 C-19.33 14.55 -19.66 26.1 -20 38 C-20.33 38 -20.66 38 -21 38 C-21.0246501 32.89136104 -21.04283607 27.78275641 -21.05493164 22.67407227 C-21.05997204 20.93480832 -21.0668043 19.19554864 -21.07543945 17.45629883 C-21.08751792 14.96174063 -21.09323108 12.46723827 -21.09765625 9.97265625 C-21.10281754 9.19036148 -21.10797882 8.40806671 -21.11329651 7.60206604 C-21.11349226 5.73432886 -21.06199694 3.86670796 -21 2 C-20 1 -20 1 -17.4375 0.9375 C-16.2309375 0.9684375 -16.2309375 0.9684375 -15 1 C-14.34 2.32 -13.68 3.64 -13 5 C-12.236875 4.360625 -11.47375 3.72125 -10.6875 3.0625 C-7.01749573 0.2459851 -4.50459352 -0.12174577 0 0 Z " fill="#9399B5" transform="translate(689,361)"/>
<path d="M0 0 C3.0625 2.0625 3.0625 2.0625 5 4 C3.50164236 7.11197356 1.86022073 10.08835016 0 13 C-0.33 13 -0.66 13 -1 13 C-1.28875 12.030625 -1.5775 11.06125 -1.875 10.0625 C-2.64214682 6.89335797 -2.64214682 6.89335797 -5 6 C-7.11620405 6.02308617 -7.11620405 6.02308617 -9.4375 6.3125 C-10.21996094 6.39113281 -11.00242187 6.46976562 -11.80859375 6.55078125 C-14.27847118 6.91386649 -14.27847118 6.91386649 -17 9 C-16.835 8.401875 -16.67 7.80375 -16.5 7.1875 C-15.8885876 4.88655664 -15.8885876 4.88655664 -16 2 C-10.43664366 -0.9592321 -6.15448424 -1.74856375 0 0 Z " fill="#565F8B" transform="translate(467,362)"/>
<path d="M0 0 C0 1.65 0 3.3 0 5 C-4.4076787 6.68961017 -8.0378362 7.24721636 -12.75 7.1875 C-13.87921875 7.18105469 -15.0084375 7.17460937 -16.171875 7.16796875 C-19 7 -19 7 -21 6 C-21 5.34 -21 4.68 -21 4 C-19.68 4 -18.36 4 -17 4 C-17 3.34 -17 2.68 -17 2 C-14.54316882 1.47097431 -12.08497874 0.95149191 -9.625 0.4375 C-8.92632813 0.28603516 -8.22765625 0.13457031 -7.5078125 -0.02148438 C-2.2265625 -1.11328125 -2.2265625 -1.11328125 0 0 Z " fill="#444D7F" transform="translate(590,394)"/>
<path d="M0 0 C0.845625 0.495 1.69125 0.99 2.5625 1.5 C2.5625 2.49 2.5625 3.48 2.5625 4.5 C0.6875 5.5625 0.6875 5.5625 -1.4375 6.5 C-2.0975 6.17 -2.7575 5.84 -3.4375 5.5 C-4.97418865 5.27532169 -6.51718054 5.09203195 -8.0625 4.9375 C-8.87976563 4.85371094 -9.69703125 4.76992188 -10.5390625 4.68359375 C-11.16554688 4.62300781 -11.79203125 4.56242187 -12.4375 4.5 C-12.7675 2.85 -13.0975 1.2 -13.4375 -0.5 C-8.53107516 -2.13547495 -4.75572976 -2.07522753 0 0 Z " fill="#5D658E" transform="translate(583.4375,362.5)"/>
<path d="M0 0 C-0.33 1.98 -0.66 3.96 -1 6 C-5.95 5.01 -10.9 4.02 -16 3 C-15.01 2.34 -14.02 1.68 -13 1 C-13 0.34 -13 -0.32 -13 -1 C-14.98 -1 -16.96 -1 -19 -1 C-19.33 -0.34 -19.66 0.32 -20 1 C-20.66 0.34 -21.32 -0.32 -22 -1 C-13.88068841 -4.16851184 -7.87219359 -2.99893089 0 0 Z " fill="#555C8B" transform="translate(550,364)"/>
<path d="M0 0 C0 0.66 0 1.32 0 2 C1.32 2.33 2.64 2.66 4 3 C2.39125 3.12375 2.39125 3.12375 0.75 3.25 C-3.40288386 4.08057677 -4.37071371 4.82672345 -7 8 C-8.33333333 9.33333333 -9.66666667 10.66666667 -11 12 C-13 10 -13 10 -13.25 6.5 C-13 3 -13 3 -11 1 C-7.30704038 -0.02582212 -3.81684076 -0.08876374 0 0 Z " fill="#434F82" transform="translate(537,363)"/>
<path d="M0 0 C0.99 0 1.98 0 3 0 C3.33 1.65 3.66 3.3 4 5 C4.99 4.34 5.98 3.68 7 3 C9.91796875 2.8046875 9.91796875 2.8046875 13.1875 2.875 C14.27417969 2.89304687 15.36085938 2.91109375 16.48046875 2.9296875 C17.72763672 2.96449219 17.72763672 2.96449219 19 3 C19 4.32 19 5.64 19 7 C16.41638482 7.05407567 13.83390745 7.093707 11.25 7.125 C10.52039063 7.14175781 9.79078125 7.15851563 9.0390625 7.17578125 C5.1955376 7.21072239 2.25393228 7.17499684 -1 5 C-0.67 3.35 -0.34 1.7 0 0 Z " fill="#3F497C" transform="translate(523,393)"/>
<path d="M0 0 C1.125 4.75 1.125 4.75 0 7 C-2.06640625 7.4140625 -2.06640625 7.4140625 -4.5625 7.625 C-5.38878906 7.69976562 -6.21507812 7.77453125 -7.06640625 7.8515625 C-8.02353516 7.92503906 -8.02353516 7.92503906 -9 8 C-9 7.34 -9 6.68 -9 6 C-10.65 6.33 -12.3 6.66 -14 7 C-13.67 5.68 -13.34 4.36 -13 3 C-12.34 3 -11.68 3 -11 3 C-10.071875 2.505 -9.14375 2.01 -8.1875 1.5 C-5.05727592 0.02695338 -3.38277725 -0.29848035 0 0 Z " fill="#646E9C" transform="translate(410,361)"/>
<path d="M0 0 C2.91691525 -0.05401695 5.83282724 -0.09368066 8.75 -0.125 C9.575 -0.14175781 10.4 -0.15851563 11.25 -0.17578125 C12.04921875 -0.18222656 12.8484375 -0.18867188 13.671875 -0.1953125 C14.4050293 -0.20578613 15.13818359 -0.21625977 15.89355469 -0.22705078 C18.29896076 0.03222456 19.91251494 0.80774075 22 2 C16.84053135 3.7041678 12.5574667 4.22225605 7.0625 4.125 C6.37865234 4.11597656 5.69480469 4.10695313 4.99023438 4.09765625 C3.32666713 4.07438958 1.66328369 4.03853167 0 4 C0 2.68 0 1.36 0 0 Z " fill="#344078" transform="translate(565,378)"/>
<path d="M0 0 C0.66 0.33 1.32 0.66 2 1 C3.70363822 1.22622081 5.41328701 1.40888473 7.125 1.5625 C8.03507813 1.64628906 8.94515625 1.73007812 9.8828125 1.81640625 C10.58148437 1.87699219 11.28015625 1.93757813 12 2 C12 3.65 12 5.3 12 7 C9.55028376 8.22485812 7.85765539 8.16722808 5.125 8.1875 C3.82949219 8.20876953 3.82949219 8.20876953 2.5078125 8.23046875 C-0.1241288 7.98859252 -1.73980544 7.32983541 -4 6 C-2.68 5.34 -1.36 4.68 0 4 C0 2.68 0 1.36 0 0 Z " fill="#414D82" transform="translate(610,393)"/>
<path d="M0 0 C1.09920273 0.00222061 2.19840546 0.00444122 3.33091736 0.00672913 C4.57212845 0.00680466 5.81333954 0.00688019 7.09216309 0.00695801 C8.45682311 0.01206541 9.82148274 0.01728142 11.18614197 0.02259827 C12.57476755 0.02446251 13.96339379 0.02588638 15.35202026 0.02688599 C19.01319686 0.03071065 22.67433402 0.04054048 26.335495 0.05158997 C30.06890835 0.06180519 33.80232805 0.06638384 37.53575134 0.07142639 C44.86584748 0.08216281 52.19591108 0.0992386 59.52598572 0.12025452 C59.52598572 0.45025452 59.52598572 0.78025452 59.52598572 1.12025452 C58.41178253 1.12905388 58.41178253 1.12905388 57.27507019 1.13803101 C50.27121504 1.19596029 43.26768135 1.26803799 36.26414871 1.35596943 C32.66362501 1.40067705 29.06321455 1.43993193 25.46250916 1.46669006 C21.9869093 1.49271973 18.51174515 1.53311873 15.0364151 1.58344078 C13.0667505 1.6082195 11.09691733 1.61815538 9.12712097 1.62789917 C7.92617798 1.64769333 6.72523499 1.66748749 5.48789978 1.68788147 C4.43088867 1.69898453 3.37387756 1.71008759 2.28483582 1.7215271 C-0.80005526 2.16737613 -2.18935094 3.05235699 -4.47401428 5.12025452 C-3.35464767 0.1630595 -3.35464767 0.1630595 0 0 Z " fill="#57608B" transform="translate(85.47401428222656,148.87974548339844)"/>
<path d="M0 0 C2 3 2 3 1.6875 5.625 C1 8 1 8 0 9 C-2.375 9.3125 -2.375 9.3125 -5 9 C-6.875 7.25 -6.875 7.25 -8 5 C-7.8125 2.8125 -7.8125 2.8125 -7 1 C-4.46578263 -0.26710868 -2.80561762 -0.28056176 0 0 Z " fill="#56608F" transform="translate(637,392)"/>
<path d="M0 0 C1.75 0.8125 1.75 0.8125 3.75 2.8125 C5.06747324 3.50998583 6.39914193 4.18209957 7.75 4.8125 C5.64679937 5.31654808 3.54240209 5.81560508 1.4375 6.3125 C-0.32013672 6.73015625 -0.32013672 6.73015625 -2.11328125 7.15625 C-5.25 7.8125 -5.25 7.8125 -8.25 7.8125 C-8.25 6.1625 -8.25 4.5125 -8.25 2.8125 C-2.87790698 -0.23982558 -2.87790698 -0.23982558 0 0 Z " fill="#4C5789" transform="translate(358.25,362.1875)"/>
<path d="M0 0 C0 2.31 0 4.62 0 7 C-4.455 7.495 -4.455 7.495 -9 8 C-9 7.34 -9 6.68 -9 6 C-9.66 5.67 -10.32 5.34 -11 5 C-7.8797251 0.39387991 -5.45124506 -0.14733095 0 0 Z " fill="#465081" transform="translate(689,361)"/>
<path d="M0 0 C2.5 0.25 2.5 0.25 4.5 2.25 C3.94444444 6.80555556 3.94444444 6.80555556 2.5 8.25 C0.16055264 7.96269945 -2.1739143 7.63063221 -4.5 7.25 C-4.625 4.875 -4.625 4.875 -4.5 2.25 C-2.5 0.25 -2.5 0.25 0 0 Z " fill="#505986" transform="translate(653.5,346.75)"/>
<path d="M0 0 C0 0.33 0 0.66 0 1 C-5.94 1.495 -5.94 1.495 -12 2 C-12.66 3.65 -13.32 5.3 -14 7 C-17.125 7.8125 -17.125 7.8125 -20 8 C-20 6.35 -20 4.7 -20 3 C-12.75506636 -0.87519706 -7.96614229 -1.12810294 0 0 Z " fill="#6A749E" transform="translate(505,362)"/>
<path d="M0 0 C0 1.66666667 0 3.33333333 0 5 C-0.93972656 5.30744141 -0.93972656 5.30744141 -1.8984375 5.62109375 C-2.71570313 5.89050781 -3.53296875 6.15992188 -4.375 6.4375 C-5.18710937 6.70433594 -5.99921875 6.97117187 -6.8359375 7.24609375 C-9.01031799 7.95179729 -9.01031799 7.95179729 -11 9 C-10.7525 8.1028125 -10.7525 8.1028125 -10.5 7.1875 C-9.8885876 4.88655664 -9.8885876 4.88655664 -10 2 C-6.5980513 -0.09350689 -3.94727588 -0.17942163 0 0 Z " fill="#414C7F" transform="translate(461,362)"/>
<path d="M0 0 C0 0.33 0 0.66 0 1 C-1.65 1.33 -3.3 1.66 -5 2 C-5.33 2.99 -5.66 3.98 -6 5 C-4.68 5.33 -3.36 5.66 -2 6 C-7.445 7.485 -7.445 7.485 -13 9 C-13.33 7.35 -13.66 5.7 -14 4 C-9.22642128 1.28608722 -5.65611463 -0.56561146 0 0 Z " fill="#566190" transform="translate(328,361)"/>
<path d="M0 0 C0 1.65 0 3.3 0 5 C-4.46334184 6.72293135 -8.10201231 7.22240791 -12.875 7.125 C-14.02742187 7.10695313 -15.17984375 7.08890625 -16.3671875 7.0703125 C-17.23601563 7.04710937 -18.10484375 7.02390625 -19 7 C-19 6.67 -19 6.34 -19 6 C-18.14535156 5.95101563 -17.29070313 5.90203125 -16.41015625 5.8515625 C-15.30542969 5.77679688 -14.20070313 5.70203125 -13.0625 5.625 C-11.40927734 5.52058594 -11.40927734 5.52058594 -9.72265625 5.4140625 C-8.37494141 5.20910156 -8.37494141 5.20910156 -7 5 C-6.67 4.34 -6.34 3.68 -6 3 C-7.32 2.34 -8.64 1.68 -10 1 C-8.71073008 0.63720544 -7.41846728 0.28503302 -6.125 -0.0625 C-5.40570312 -0.25972656 -4.68640625 -0.45695312 -3.9453125 -0.66015625 C-2 -1 -2 -1 0 0 Z " fill="#7178A1" transform="translate(590,394)"/>
<path d="M0 0 C0.80824219 0.10183594 1.61648438 0.20367187 2.44921875 0.30859375 C3.06410156 0.39238281 3.67898438 0.47617187 4.3125 0.5625 C4.3125 0.8925 4.3125 1.2225 4.3125 1.5625 C2.45625 1.500625 2.45625 1.500625 0.5625 1.4375 C-2.70387962 1.42591709 -4.9021947 1.7056298 -7.6875 3.5625 C-7.3575 4.5525 -7.0275 5.5425 -6.6875 6.5625 C-8.3375 7.2225 -9.9875 7.8825 -11.6875 8.5625 C-12.0175 6.9125 -12.3475 5.2625 -12.6875 3.5625 C-8.19235806 0.76822258 -5.30739325 -0.69226869 0 0 Z " fill="#67719B" transform="translate(438.6875,361.4375)"/>
<path d="M0 0 C3.96 0 7.92 0 12 0 C10.68 0.33 9.36 0.66 8 1 C8 1.66 8 2.32 8 3 C6.02 3 4.04 3 2 3 C2 3.66 2 4.32 2 5 C0.02 5 -1.96 5 -4 5 C-3.34 4.67 -2.68 4.34 -2 4 C-1.34 2.68 -0.68 1.36 0 0 Z " fill="#434E80" transform="translate(493,363)"/>
<path d="M0 0 C3.96 0 7.92 0 12 0 C11.01 0.495 11.01 0.495 10 1 C10 1.66 10 2.32 10 3 C6.78548731 4.60725635 3.56387464 4.05748185 0 4 C-0.33 3.34 -0.66 2.68 -1 2 C-0.67 1.34 -0.34 0.68 0 0 Z " fill="#344177" transform="translate(274,363)"/>
<path d="M0 0 C-0.99 0.66 -1.98 1.32 -3 2 C-4.34061543 1.69728039 -5.67405895 1.36162029 -7 1 C-9.18703385 1.37907282 -9.18703385 1.37907282 -11 2 C-11 1.34 -11 0.68 -11 0 C-12.98 0 -14.96 0 -17 0 C-17.33 0.66 -17.66 1.32 -18 2 C-18.66 1.34 -19.32 0.68 -20 0 C-12.81221969 -2.80498744 -7.14874771 -2.33428497 0 0 Z " fill="#68739B" transform="translate(548,363)"/>
<path d="M0 0 C2.97 0 5.94 0 9 0 C9 1.32 9 2.64 9 4 C6.36 4.33 3.72 4.66 1 5 C0.67 3.35 0.34 1.7 0 0 Z " fill="#3C487C" transform="translate(570,362)"/>
<path d="M0 0 C2.475 0.99 2.475 0.99 5 2 C4.67 2.99 4.34 3.98 4 5 C3.34 5 2.68 5 2 5 C0.65117592 5.63474075 -0.6846659 6.29848848 -2 7 C-2.33 6.01 -2.66 5.02 -3 4 C-5.31 3.67 -7.62 3.34 -10 3 C-10 2.67 -10 2.34 -10 2 C-9.04287109 1.90912109 -9.04287109 1.90912109 -8.06640625 1.81640625 C-6.82697266 1.69072266 -6.82697266 1.69072266 -5.5625 1.5625 C-4.73878906 1.48128906 -3.91507812 1.40007812 -3.06640625 1.31640625 C-1.01337975 1.21069185 -1.01337975 1.21069185 0 0 Z " fill="#6E78A0" transform="translate(502,393)"/>
<path d="M0 0 C1.37478516 0.01740234 1.37478516 0.01740234 2.77734375 0.03515625 C3.69644531 0.04417969 4.61554688 0.05320312 5.5625 0.0625 C6.27277344 0.07410156 6.98304688 0.08570313 7.71484375 0.09765625 C7.05484375 1.41765625 6.39484375 2.73765625 5.71484375 4.09765625 C3.07484375 4.09765625 0.43484375 4.09765625 -2.28515625 4.09765625 C-2.61515625 3.10765625 -2.94515625 2.11765625 -3.28515625 1.09765625 C-2.28515625 0.09765625 -2.28515625 0.09765625 0 0 Z " fill="#334178" transform="translate(358.28515625,395.90234375)"/>
<path d="M0 0 C7.75 0.75 7.75 0.75 10 3 C7.33333333 3.66666667 4.66666667 4.33333333 2 5 C1.31421875 5.22816406 0.6284375 5.45632813 -0.078125 5.69140625 C-2 6 -2 6 -5 4 C-3.35 3.34 -1.7 2.68 0 2 C0 1.34 0 0.68 0 0 Z " fill="#636C94" transform="translate(536,378)"/>
<path d="M0 0 C2.97 0 5.94 0 9 0 C9 1.32 9 2.64 9 4 C6.03 4 3.06 4 0 4 C0 2.68 0 1.36 0 0 Z " fill="#374378" transform="translate(491,396)"/>
<path d="M0 0 C0.99 0.99 1.98 1.98 3 3 C1.60878255 5.7824349 -0.30164212 6.55210065 -3 8 C-3.66 8 -4.32 8 -5 8 C-4.67 7.01 -4.34 6.02 -4 5 C-4.99 4.34 -5.98 3.68 -7 3 C-4.69 2.01 -2.38 1.02 0 0 Z " fill="#55608C" transform="translate(369,392)"/>
<path d="M0 0 C3.3 0 6.6 0 10 0 C10 1.65 10 3.3 10 5 C7.47524538 6.26237731 5.68799534 6.09856404 2.875 6.0625 C1.96492187 6.05347656 1.05484375 6.04445313 0.1171875 6.03515625 C-0.58148437 6.02355469 -1.28015625 6.01195312 -2 6 C-2 5.67 -2 5.34 -2 5 C0.97 5 3.94 5 7 5 C7 4.01 7 3.02 7 2 C4.69 1.67 2.38 1.34 0 1 C0 0.67 0 0.34 0 0 Z " fill="#8991B5" transform="translate(612,395)"/>
<path d="M0 0 C0.78375 0.04125 1.5675 0.0825 2.375 0.125 C2.705 1.115 3.035 2.105 3.375 3.125 C0.36009443 4.12996852 -1.66681692 4.22835303 -4.8125 4.1875 C-6.16408203 4.17396484 -6.16408203 4.17396484 -7.54296875 4.16015625 C-8.23003906 4.14855469 -8.91710937 4.13695312 -9.625 4.125 C-9.625 3.795 -9.625 3.465 -9.625 3.125 C-8.84125 3.00125 -8.0575 2.8775 -7.25 2.75 C-3.99140815 1.9741448 -3.37025872 0.16048851 0 0 Z " fill="#353F75" transform="translate(582.625,395.875)"/>
<path d="M0 0 C0 1.32 0 2.64 0 4 C-3.3 4 -6.6 4 -10 4 C-6.32379932 0.32379932 -5.15439554 0 0 0 Z " fill="#2F3B6E" transform="translate(542,396)"/>
<path d="M0 0 C-1.485 1.485 -1.485 1.485 -3 3 C-1.68 3.33 -0.36 3.66 1 4 C-1.31 4.66 -3.62 5.32 -6 6 C-6.33 4.02 -6.66 2.04 -7 0 C-3.86650268 -1.04449911 -3.01031744 -0.93423645 0 0 Z " fill="#6F769D" transform="translate(497,379)"/>
<path d="M0 0 C3.3 0 6.6 0 10 0 C9.34 0.66 8.68 1.32 8 2 C8.33 2.66 8.66 3.32 9 4 C6.69 4 4.38 4 2 4 C2 3.34 2 2.68 2 2 C1.34 1.34 0.68 0.68 0 0 Z " fill="#303D74" transform="translate(274,396)"/>
<path d="M0 0 C0.99 0 1.98 0 3 0 C3 1.32 3 2.64 3 4 C3.66 4.33 4.32 4.66 5 5 C3.02 5.33 1.04 5.66 -1 6 C-1.042721 4.33388095 -1.04063832 2.66617115 -1 1 C-0.67 0.67 -0.34 0.34 0 0 Z " fill="#64709D" transform="translate(351,364)"/>
<path d="M0 0 C1.98 0 3.96 0 6 0 C6 0.66 6 1.32 6 2 C7.32 2.33 8.64 2.66 10 3 C6.7 3.33 3.4 3.66 0 4 C0 2.68 0 1.36 0 0 Z " fill="#313E75" transform="translate(531,363)"/>
<path d="M0 0 C6.93 0.495 6.93 0.495 14 1 C14 1.33 14 1.66 14 2 C13.31292969 2.06058594 12.62585938 2.12117188 11.91796875 2.18359375 C10.56638672 2.30927734 10.56638672 2.30927734 9.1875 2.4375 C8.29417969 2.51871094 7.40085937 2.59992188 6.48046875 2.68359375 C3.87256441 2.93489767 3.87256441 2.93489767 1 4 C0.67 2.68 0.34 1.36 0 0 Z " fill="#7881A6" transform="translate(526,394)"/>
<path d="M0 0 C-0.33 0.66 -0.66 1.32 -1 2 C1.475 2.99 1.475 2.99 4 4 C0.46474216 5.17841928 -1.4202048 4.91399027 -5 4 C-5.66 3.01 -6.32 2.02 -7 1 C-4.53721199 -0.231394 -2.7204945 -0.07159196 0 0 Z " fill="#2E3B72" transform="translate(365,362)"/>
<path d="M0 0 C2.66666667 0.66666667 5.33333333 1.33333333 8 2 C8 3.98 8 5.96 8 8 C7.67 8 7.34 8 7 8 C7 6.35 7 4.7 7 3 C4.69 3 2.38 3 0 3 C0 2.01 0 1.02 0 0 Z " fill="#6B729B" transform="translate(498,379)"/>
<path d="M0 0 C1.65 0 3.3 0 5 0 C5.66 1.65 6.32 3.3 7 5 C6.01 5 5.02 5 4 5 C3.67 4.34 3.34 3.68 3 3 C2.01 3.495 2.01 3.495 1 4 C0.67 2.68 0.34 1.36 0 0 Z " fill="#677097" transform="translate(262,362)"/>
<path d="M0 0 C3.3 0.33 6.6 0.66 10 1 C10 1.33 10 1.66 10 2 C6.7 2.33 3.4 2.66 0 3 C0 2.01 0 1.02 0 0 Z " fill="#333C74" transform="translate(360,379)"/>
<path d="M0 0 C0.75 1.6875 0.75 1.6875 1 4 C-0.8125 6.75 -0.8125 6.75 -3 9 C-3.66 9 -4.32 9 -5 9 C-3.7508258 5.54074837 -2.32472205 2.85306797 0 0 Z " fill="#586391" transform="translate(261,191)"/>
<path d="M0 0 C0.99 0 1.98 0 3 0 C3 1.32 3 2.64 3 4 C0.69 4.33 -1.62 4.66 -4 5 C-3.01 4.34 -2.02 3.68 -1 3 C-0.67 2.01 -0.34 1.02 0 0 Z " fill="#5C6694" transform="translate(514,396)"/>
<path d="M0 0 C0.99 0 1.98 0 3 0 C4.125 3.75 4.125 3.75 3 6 C1.68 5.67 0.36 5.34 -1 5 C-0.67 3.35 -0.34 1.7 0 0 Z " fill="#55618E" transform="translate(523,393)"/>
<path d="M0 0 C0.99 0.33 1.98 0.66 3 1 C3 1.66 3 2.32 3 3 C3.66 3.33 4.32 3.66 5 4 C3.02 4.99 1.04 5.98 -1 7 C-0.7525 6.1028125 -0.7525 6.1028125 -0.5 5.1875 C0.1114124 2.88655664 0.1114124 2.88655664 0 0 Z " fill="#57608C" transform="translate(451,364)"/>
<path d="M0 0 C0 0.99 0 1.98 0 3 C0.66 3.66 1.32 4.32 2 5 C0.68 5.33 -0.64 5.66 -2 6 C-2.99 4.68 -3.98 3.36 -5 2 C-2 0 -2 0 0 0 Z " fill="#5F6A97" transform="translate(274,363)"/>
<path d="M0 0 C2.97 0 5.94 0 9 0 C7.68 0.33 6.36 0.66 5 1 C5 1.66 5 2.32 5 3 C3.35 3 1.7 3 0 3 C0 2.01 0 1.02 0 0 Z " fill="#333D75" transform="translate(496,363)"/>
<path d="M0 0 C0 0.66 0 1.32 0 2 C0.66 2.33 1.32 2.66 2 3 C0.35 3 -1.3 3 -3 3 C-3 2.34 -3 1.68 -3 1 C-3.99 1.33 -4.98 1.66 -6 2 C-6 1.34 -6 0.68 -6 0 C-3.50907189 -1.24546405 -2.58919267 -0.7767578 0 0 Z " fill="#404B7C" transform="translate(273,396)"/>
<path d="M0 0 C1.5 1.375 1.5 1.375 3 3 C3 3.66 3 4.32 3 5 C3.99 5.33 4.98 5.66 6 6 C6 6.66 6 7.32 6 8 C3.53199953 6.84826645 1.95216435 5.95216435 0 4 C0 2.68 0 1.36 0 0 Z " fill="#58628A" transform="translate(561,390)"/>
<path d="M0 0 C0.556875 0.144375 1.11375 0.28875 1.6875 0.4375 C4.11384195 1.02769128 6.54906345 1.523429 9 2 C9 2.33 9 2.66 9 3 C6.36 3.33 3.72 3.66 1 4 C0.67 2.68 0.34 1.36 0 0 Z " fill="#2C396F" transform="translate(570,363)"/>
</svg>
